<mxfile host="app.diagrams.net" modified="2024-05-09T09:13:34.834Z" agent="Mozilla/5.0 (Windows NT 10.0; Win64; x64; rv:125.0) Gecko/20100101 Firefox/125.0" etag="-u6_aIGu06_W2-fbckNK" version="24.3.1" type="github">
  <diagram name="Page-1" id="milYkLg96uxCiUISAmhT">
    <mxGraphModel dx="635" dy="331" grid="1" gridSize="10" guides="1" tooltips="1" connect="1" arrows="1" fold="1" page="1" pageScale="1" pageWidth="850" pageHeight="1100" math="1" shadow="0">
      <root>
        <mxCell id="0" />
        <mxCell id="1" parent="0" />
        <mxCell id="NcG4sBHDOAafFcYKclui-20" value="" style="rounded=0;whiteSpace=wrap;html=1;" parent="1" vertex="1">
          <mxGeometry x="260" y="95" width="353" height="225" as="geometry" />
        </mxCell>
        <mxCell id="NcG4sBHDOAafFcYKclui-6" style="edgeStyle=orthogonalEdgeStyle;rounded=0;orthogonalLoop=1;jettySize=auto;html=1;exitX=1;exitY=0.5;exitDx=0;exitDy=0;entryX=0;entryY=0.5;entryDx=0;entryDy=0;" parent="1" source="NcG4sBHDOAafFcYKclui-1" edge="1">
          <mxGeometry relative="1" as="geometry">
            <mxPoint x="440" y="170" as="targetPoint" />
          </mxGeometry>
        </mxCell>
        <mxCell id="NcG4sBHDOAafFcYKclui-1" value="" style="shape=sumEllipse;perimeter=ellipsePerimeter;whiteSpace=wrap;html=1;backgroundOutline=1;" parent="1" vertex="1">
          <mxGeometry x="300" y="140" width="60" height="60" as="geometry" />
        </mxCell>
        <mxCell id="NcG4sBHDOAafFcYKclui-2" value="&lt;div style=&quot;font-size: 32px;&quot;&gt;&lt;font style=&quot;font-size: 32px;&quot;&gt;-&lt;/font&gt;&lt;/div&gt;" style="text;html=1;align=center;verticalAlign=middle;resizable=0;points=[];autosize=1;strokeColor=none;fillColor=none;" parent="1" vertex="1">
          <mxGeometry x="315" y="160" width="30" height="50" as="geometry" />
        </mxCell>
        <mxCell id="NcG4sBHDOAafFcYKclui-3" value="&lt;font style=&quot;font-size: 32px;&quot;&gt;+&lt;br&gt;&lt;/font&gt;" style="text;whiteSpace=wrap;html=1;" parent="1" vertex="1">
          <mxGeometry x="300" y="145" width="30" height="40" as="geometry" />
        </mxCell>
        <mxCell id="NcG4sBHDOAafFcYKclui-8" style="edgeStyle=orthogonalEdgeStyle;rounded=0;orthogonalLoop=1;jettySize=auto;html=1;exitX=1;exitY=0.5;exitDx=0;exitDy=0;entryX=1;entryY=0.5;entryDx=0;entryDy=0;" parent="1" target="NcG4sBHDOAafFcYKclui-7" edge="1">
          <mxGeometry relative="1" as="geometry">
            <mxPoint x="520" y="170" as="sourcePoint" />
            <Array as="points">
              <mxPoint x="580" y="170" />
              <mxPoint x="580" y="270" />
            </Array>
          </mxGeometry>
        </mxCell>
        <mxCell id="NcG4sBHDOAafFcYKclui-11" style="edgeStyle=orthogonalEdgeStyle;rounded=0;orthogonalLoop=1;jettySize=auto;html=1;exitX=0;exitY=0.5;exitDx=0;exitDy=0;entryX=0.5;entryY=1;entryDx=0;entryDy=0;" parent="1" source="NcG4sBHDOAafFcYKclui-7" target="NcG4sBHDOAafFcYKclui-1" edge="1">
          <mxGeometry relative="1" as="geometry" />
        </mxCell>
        <mxCell id="NcG4sBHDOAafFcYKclui-7" value="&lt;div&gt;$$\beta$$&lt;/div&gt;" style="whiteSpace=wrap;html=1;aspect=fixed;" parent="1" vertex="1">
          <mxGeometry x="440" y="240" width="60" height="60" as="geometry" />
        </mxCell>
        <mxCell id="NcG4sBHDOAafFcYKclui-13" style="edgeStyle=orthogonalEdgeStyle;rounded=0;orthogonalLoop=1;jettySize=auto;html=1;entryX=0;entryY=0.75;entryDx=0;entryDy=0;" parent="1" source="NcG4sBHDOAafFcYKclui-12" target="NcG4sBHDOAafFcYKclui-3" edge="1">
          <mxGeometry relative="1" as="geometry" />
        </mxCell>
        <mxCell id="NcG4sBHDOAafFcYKclui-12" value="&lt;font style=&quot;font-size: 20px;&quot;&gt;Input&lt;/font&gt;" style="text;html=1;align=center;verticalAlign=middle;resizable=0;points=[];autosize=1;strokeColor=none;fillColor=none;" parent="1" vertex="1">
          <mxGeometry x="170" y="155" width="70" height="40" as="geometry" />
        </mxCell>
        <mxCell id="NcG4sBHDOAafFcYKclui-14" value="&lt;div style=&quot;font-size: 13px;&quot;&gt;&lt;font style=&quot;font-size: 20px;&quot;&gt;Output&lt;/font&gt;&lt;/div&gt;" style="text;html=1;align=center;verticalAlign=middle;resizable=0;points=[];autosize=1;strokeColor=none;fillColor=none;" parent="1" vertex="1">
          <mxGeometry x="640" y="150" width="80" height="40" as="geometry" />
        </mxCell>
        <mxCell id="NcG4sBHDOAafFcYKclui-18" style="edgeStyle=orthogonalEdgeStyle;rounded=0;orthogonalLoop=1;jettySize=auto;html=1;exitX=1;exitY=0.5;exitDx=0;exitDy=0;" parent="1" source="NcG4sBHDOAafFcYKclui-16" target="NcG4sBHDOAafFcYKclui-14" edge="1">
          <mxGeometry relative="1" as="geometry" />
        </mxCell>
        <mxCell id="NcG4sBHDOAafFcYKclui-16" value="&lt;font style=&quot;font-size: 20px;&quot;&gt;A&lt;/font&gt;" style="triangle;whiteSpace=wrap;html=1;align=center;flipH=0;" parent="1" vertex="1">
          <mxGeometry x="440" y="130" width="80" height="80" as="geometry" />
        </mxCell>
      </root>
    </mxGraphModel>
  </diagram>
</mxfile>
